<svg xmlns="http://www.w3.org/2000/svg" viewBox="0 0 520 520"><defs><style>.cls-1{fill:#d99443;}</style></defs><title>icons</title><g id="Layer_1" data-name="Layer 1"><path class="cls-1" d="M298.36,369.31H221.64a71,71,0,0,1-70.95-70.95V221.64a71,71,0,0,1,70.95-70.95h76.72a71,71,0,0,1,70.95,70.95v76.72A71,71,0,0,1,298.36,369.31ZM221.64,158.69a63,63,0,0,0-62.95,62.95v76.72a63,63,0,0,0,62.95,62.95h76.72a63,63,0,0,0,62.95-62.95V221.64a63,63,0,0,0-62.95-62.95Z"/><path class="cls-1" d="M260.15,310.64A50.81,50.81,0,1,1,311,259.83,50.86,50.86,0,0,1,260.15,310.64Zm0-93.61A42.81,42.81,0,1,0,303,259.83,42.85,42.85,0,0,0,260.15,217Z"/><path class="cls-1" d="M319.44,222.49a21.94,21.94,0,1,1,21.94-21.94A22,22,0,0,1,319.44,222.49Zm0-35.88a13.94,13.94,0,1,0,13.94,13.94A14,14,0,0,0,319.44,186.61Z"/></g></svg>