<svg xmlns="http://www.w3.org/2000/svg" viewBox="0 0 520 520"><defs><style>.cls-1{fill:none;}.cls-2{fill:#d99443;}</style></defs><title>icons</title><g id="Layer_1" data-name="Layer 1"><path class="cls-1" d="M249.76,272a15.67,15.67,0,0,0,20.48,0l109.61-93.84a8.22,8.22,0,0,0-1.41-.13H141.56a8.22,8.22,0,0,0-1.41.13Z"/><path class="cls-1" d="M275.45,278a23.63,23.63,0,0,1-30.9,0L134,183.4a8,8,0,0,0-.44,2.6V334a8,8,0,0,0,8,8H378.44a8,8,0,0,0,8-8V186a8,8,0,0,0-.44-2.6Z"/><path class="cls-2" d="M378.44,170H141.56a16,16,0,0,0-16,16V334a16,16,0,0,0,16,16H378.44a16,16,0,0,0,16-16V186A16,16,0,0,0,378.44,170Zm0,8a8.22,8.22,0,0,1,1.41.13L270.24,272a15.67,15.67,0,0,1-20.48,0L140.15,178.13a8.22,8.22,0,0,1,1.41-.13Zm8,156a8,8,0,0,1-8,8H141.56a8,8,0,0,1-8-8V186a8,8,0,0,1,.44-2.6L244.55,278a23.63,23.63,0,0,0,30.9,0L386,183.4a8,8,0,0,1,.44,2.6Z"/></g></svg>