<svg xmlns="http://www.w3.org/2000/svg" viewBox="0 0 520 520"><defs><style>.cls-1{fill:#d99443;}.cls-2{fill:none;}</style></defs><title>icons</title><g id="Layer_1" data-name="Layer 1"><path class="cls-1" d="M260,493.46A233.46,233.46,0,0,1,94.92,94.92,231.9,231.9,0,0,1,260,26.54c65.36,0,125.07,24.3,168.13,68.42,42.13,43.18,65.33,101.79,65.33,165A233.46,233.46,0,0,1,260,493.46Zm0-456.92C136.78,36.54,36.54,136.78,36.54,260S136.78,483.46,260,483.46,483.46,383.22,483.46,260C483.46,132.61,387.39,36.54,260,36.54Z"/><path class="cls-2" d="M328.43,271.78a1.23,1.23,0,0,0-.32-1.25c-4.86-5.84-8.81-32.51-9.55-37.8-5.58-38.49-25.78-58.86-58.43-58.92s-52.85,20.43-58.43,58.93c-.74,5.28-4.68,31.95-9.55,37.79a1.25,1.25,0,0,0-.31,1.25c1.12,4.54,14,11.82,23.57,15.93A94,94,0,0,1,241,278.85a50.21,50.21,0,0,1-28.82-62c.31-1,.66-1.89,1-2.82a25.2,25.2,0,0,0,6.54-1.17c11-3.55,19.08-14.22,23.68-22.05.42-.69.8-1.37,1.16-2a6.54,6.54,0,0,1,5.7-3.39,6.4,6.4,0,0,1,5.13,2.45,5.69,5.69,0,0,1,.59.86c4.94,8.74,17.13,22.94,44.63,25.06q2.94.22,6.12.27c.36.92.7,1.85,1,2.8a50.21,50.21,0,0,1-28.82,62,94,94,0,0,1,25.74,8.93C314.27,283.67,327.3,276.34,328.43,271.78Z"/><path class="cls-2" d="M304.71,232.35a44.54,44.54,0,0,0-1.9-12.88c-31.85-1.57-45.94-18-51.59-28a1,1,0,0,0-.87-.5.91.91,0,0,0-.9.53c-5.26,9.53-16.08,24.93-32.17,27.69a44.71,44.71,0,1,0,87.43,13.18Z"/><path class="cls-1" d="M310.65,291.18c7.9-3.7,21.39-10.95,23.15-18.07a6.73,6.73,0,0,0-1.44-6.12c-3-3.59-6.69-23.39-8.32-35-5.94-40.95-28.58-63.55-63.77-63.66H260c-35.19.11-57.84,22.71-63.77,63.67-1.63,11.64-5.34,31.44-8.33,35a6.72,6.72,0,0,0-1.43,6.12c1.75,7.08,15.08,14.28,23,18-21,13.08-34.62,34.09-34.67,57.73a2.86,2.86,0,0,0,2.26,2.84,2.77,2.77,0,0,0,3.27-2.73c0-36.59,35.74-66.37,79.67-66.37s79.59,29.72,79.67,66.27a2.77,2.77,0,1,0,5.53.1C345.2,325.31,331.6,304.29,310.65,291.18Zm-95.18-54.79a44.87,44.87,0,0,1,1.1-14.67,4.24,4.24,0,0,1,3.11-3.06c14.77-3.79,24.78-18.13,29.77-27.18a.91.91,0,0,1,.9-.53,1,1,0,0,1,.87.5c5.47,9.69,18.85,25.41,48.61,27.83a4.18,4.18,0,0,1,3.77,3.2,44.71,44.71,0,1,1-88.13,13.91ZM279,278.85a50.21,50.21,0,0,0,28.82-62v0A4.18,4.18,0,0,0,304,214c-1.12-.05-2.21-.11-3.29-.2-27.5-2.12-39.69-16.32-44.63-25.06a5.69,5.69,0,0,0-.59-.86,6.45,6.45,0,0,0-5.55-2.44,6.81,6.81,0,0,0-5.4,3.59c-.32.58-.67,1.18-1,1.8-4.6,7.83-12.65,18.5-23.68,22.05a24.77,24.77,0,0,1-4.13.95,4.17,4.17,0,0,0-3.35,2.8,2.25,2.25,0,0,1-.08.24,50.21,50.21,0,0,0,28.82,62,94,94,0,0,0-25.62,8.86c-9.54-4.11-22.45-11.39-23.57-15.93a1.25,1.25,0,0,1,.31-1.25C197,264.69,201,238,201.7,232.74c5.58-38.5,25.79-58.87,58.43-58.93s52.85,20.43,58.43,58.92c.74,5.29,4.69,32,9.55,37.8a1.23,1.23,0,0,1,.32,1.25c-1.13,4.56-14.16,11.89-23.72,16A94,94,0,0,0,279,278.85Z"/><path class="cls-2" d="M240.51,220.79c-4.65,0-12.46,1.1-12.46,8.5,0,6.34,5.59,11.5,12.46,11.5S253,235.63,253,229.29C253,221.89,245.16,220.79,240.51,220.79Z"/><path class="cls-2" d="M279.49,220.79c-4.65,0-12.45,1.1-12.45,8.5,0,6.34,5.59,11.5,12.45,11.5S292,235.63,292,229.29C292,221.89,284.14,220.79,279.49,220.79Z"/><path class="cls-1" d="M279.49,217.79c-8.29,0-13.75,3.07-15.26,8.35a25.74,25.74,0,0,0-8.46,0c-1.51-5.28-7-8.35-15.26-8.35-9.84,0-15.71,4.3-15.71,11.5,0,8,7,14.5,15.71,14.5s15.7-6.51,15.7-14.5c0-.06,0-.12,0-.18a22.72,22.72,0,0,1,7.6,0c0,.06,0,.12,0,.18,0,8,7,14.5,15.7,14.5s15.71-6.51,15.71-14.5C295.2,222.09,289.33,217.79,279.49,217.79Zm-39,23c-6.87,0-12.46-5.16-12.46-11.5,0-7.4,7.81-8.5,12.46-8.5s12.45,1.1,12.45,8.5C253,235.63,247.37,240.79,240.51,240.79Zm39,0c-6.86,0-12.45-5.16-12.45-11.5,0-7.4,7.8-8.5,12.45-8.5s12.46,1.1,12.46,8.5C292,235.63,286.36,240.79,279.49,240.79Z"/></g></svg>