<svg xmlns="http://www.w3.org/2000/svg" viewBox="0 0 520 520"><defs><style>.cls-1{fill:#d99443;}.cls-2{fill:none;}</style></defs><title>icons</title><g id="Layer_1" data-name="Layer 1"><path class="cls-1" d="M260,494A234,234,0,0,1,94.56,94.56,232.44,232.44,0,0,1,260,26c65.5,0,125.33,24.35,168.48,68.57C470.71,137.88,494,196.62,494,260A233.94,233.94,0,0,1,260,494ZM260,37c-122.94,0-223,100-223,223s100,223,223,223,223-100,223-223C483,132.89,387.11,37,260,37Z"/><path class="cls-2" d="M260,198.45A49.86,49.86,0,0,0,231,288.55c.42.3.84.61,1.27.9l5.63,35h44.3l5.63-35c.43-.29.85-.6,1.27-.9A49.86,49.86,0,0,0,260,198.45Z"/><path class="cls-1" d="M260.4,192.82v0h-.8v0a55.48,55.48,0,0,0-34.15,98.58,3.77,3.77,0,0,1,1.35,2.34l4.95,33.51a3.69,3.69,0,0,0,3.64,3.14h49.22a3.69,3.69,0,0,0,3.64-3.14l4.95-33.51a3.77,3.77,0,0,1,1.35-2.34,55.48,55.48,0,0,0-34.15-98.58Zm28.65,95.73h0a3.69,3.69,0,0,0-1.5,2.41l-4.89,30.35a3.68,3.68,0,0,1-3.63,3.09H241a3.68,3.68,0,0,1-3.63-3.09L232.46,291a3.69,3.69,0,0,0-1.5-2.41h0a49.48,49.48,0,1,1,58.1,0Z"/><path class="cls-1" d="M259.6,332.8H235.46a2.82,2.82,0,0,0-2.82,2.82h0a2.82,2.82,0,0,0,2.82,2.81h49.08a2.82,2.82,0,0,0,2.82-2.81h0a2.82,2.82,0,0,0-2.82-2.82H259.6Z"/><path class="cls-1" d="M259.6,340.85H239.54a2.81,2.81,0,0,0-2.81,2.81h0a2.81,2.81,0,0,0,2.81,2.82h40.92a2.81,2.81,0,0,0,2.81-2.82h0a2.81,2.81,0,0,0-2.81-2.81H259.6Z"/><path class="cls-1" d="M259.6,349.7H244.54a.93.93,0,0,0-.75,1.49,20.83,20.83,0,0,0,15.81,8.13v0h.8v0a20.83,20.83,0,0,0,15.81-8.13.93.93,0,0,0-.75-1.49H259.6Z"/><path class="cls-1" d="M294.19,233a2.37,2.37,0,0,1-2.33-2,19,19,0,0,0-15-15,2.37,2.37,0,0,1,.93-4.65,23.81,23.81,0,0,1,18.77,18.79,2.37,2.37,0,0,1-1.91,2.76A2.09,2.09,0,0,1,294.19,233Z"/><line class="cls-1" x1="260.23" y1="164.62" x2="260.23" y2="181.54"/><path class="cls-1" d="M260.23,184.15a2.61,2.61,0,0,1-2.61-2.61V164.62a2.61,2.61,0,1,1,5.22,0v16.92A2.61,2.61,0,0,1,260.23,184.15Z"/><line class="cls-1" x1="309.33" y1="180.72" x2="299.38" y2="194.41"/><path class="cls-1" d="M299.38,197a2.64,2.64,0,0,1-1.53-.5,2.61,2.61,0,0,1-.58-3.65l10-13.69a2.61,2.61,0,1,1,4.22,3.07L301.5,196A2.63,2.63,0,0,1,299.38,197Z"/><line class="cls-1" x1="339.58" y1="222.61" x2="323.49" y2="227.84"/><path class="cls-1" d="M323.49,230.45a2.61,2.61,0,0,1-.81-5.09l16.1-5.23a2.61,2.61,0,1,1,1.61,5l-16.09,5.23A2.54,2.54,0,0,1,323.49,230.45Z"/><line class="cls-1" x1="339.44" y1="274.28" x2="323.35" y2="269.05"/><path class="cls-1" d="M339.44,276.89a2.54,2.54,0,0,1-.81-.13l-16.09-5.22a2.61,2.61,0,1,1,1.61-5l16.1,5.23a2.61,2.61,0,0,1-.81,5.09Z"/><line class="cls-1" x1="180.42" y1="273.84" x2="196.51" y2="268.61"/><path class="cls-1" d="M180.42,276.45a2.61,2.61,0,0,1-.81-5.1l16.09-5.22a2.61,2.61,0,0,1,1.62,5l-16.1,5.23A2.53,2.53,0,0,1,180.42,276.45Z"/><line class="cls-1" x1="180.56" y1="222.17" x2="196.65" y2="227.4"/><path class="cls-1" d="M196.65,230a2.48,2.48,0,0,1-.8-.13l-16.1-5.23a2.61,2.61,0,0,1,1.62-5l16.09,5.23a2.61,2.61,0,0,1-.81,5.1Z"/><line class="cls-1" x1="211.05" y1="180.45" x2="220.99" y2="194.14"/><path class="cls-1" d="M221,196.75a2.6,2.6,0,0,1-2.12-1.08L208.93,182a2.61,2.61,0,1,1,4.23-3.07l10,13.69a2.61,2.61,0,0,1-2.11,4.14Z"/><line class="cls-1" x1="260.23" y1="164.62" x2="260.23" y2="181.54"/><path class="cls-1" d="M260.23,184.15a2.61,2.61,0,0,1-2.61-2.61V164.62a2.61,2.61,0,1,1,5.22,0v16.92A2.61,2.61,0,0,1,260.23,184.15Z"/></g></svg>