<svg xmlns="http://www.w3.org/2000/svg" viewBox="0 0 520 520"><defs><style>.cls-1{fill:#d99443;}</style></defs><title>icons</title><g id="Layer_1" data-name="Layer 1"><path class="cls-1" d="M260,493.46A233.46,233.46,0,0,1,94.92,94.92,231.9,231.9,0,0,1,260,26.54c65.36,0,125.07,24.3,168.13,68.42,42.13,43.18,65.33,101.79,65.33,165A233.46,233.46,0,0,1,260,493.46Zm0-456.92C136.78,36.54,36.54,136.78,36.54,260S136.78,483.46,260,483.46,483.46,383.22,483.46,260C483.46,132.61,387.39,36.54,260,36.54Z"/><path class="cls-1" d="M334.63,325.23H185.37a12.05,12.05,0,0,1-12-12V225.74a12.05,12.05,0,0,1,12-12h40.29L229.89,197a3,3,0,0,1,2.9-2.26h53.78a3,3,0,0,1,2.9,2.22L294,213.7h40.66a12.05,12.05,0,0,1,12,12v87.45A12.05,12.05,0,0,1,334.63,325.23ZM185.37,219.7a6,6,0,0,0-6,6v87.45a6,6,0,0,0,6,6H334.63a6,6,0,0,0,6-6V225.74a6,6,0,0,0-6-6h-43a3,3,0,0,1-2.9-2.22l-4.49-16.71H235.13l-4.23,16.66A3,3,0,0,1,228,219.7Z"/><path class="cls-1" d="M260,304.88a35.42,35.42,0,1,1,35.41-35.41A35.45,35.45,0,0,1,260,304.88Zm0-64.83a29.42,29.42,0,1,0,29.41,29.42A29.45,29.45,0,0,0,260,240.05Z"/></g></svg>