<svg xmlns="http://www.w3.org/2000/svg" viewBox="0 0 520 520"><defs><style>.cls-1{fill:#d99443;}.cls-2{fill:none;}</style></defs><title>icons</title><g id="Layer_1" data-name="Layer 1"><path class="cls-1" d="M260,493.46A233.46,233.46,0,0,1,94.92,94.92,231.9,231.9,0,0,1,260,26.54c65.36,0,125.07,24.3,168.13,68.42,42.13,43.18,65.33,101.79,65.33,165A233.46,233.46,0,0,1,260,493.46Zm0-456.92C136.78,36.54,36.54,136.78,36.54,260S136.78,483.46,260,483.46,483.46,383.22,483.46,260C483.46,132.61,387.39,36.54,260,36.54Z"/><rect class="cls-2" x="180.65" y="209.94" width="120.62" height="100.11" rx="9"/><polygon class="cls-2" points="308.47 289.41 339.35 296.19 339.35 223.16 308.47 230.36 308.47 289.41"/><path class="cls-1" d="M344.22,217a3,3,0,0,0-2.55-.58l-34.4,8v-5.54a15,15,0,0,0-15-15H189.65a15,15,0,0,0-15,15v82.12a15,15,0,0,0,15,15H292.27a15,15,0,0,0,15-15v-5.77l34.44,7.56a3.48,3.48,0,0,0,.64.07,2.94,2.94,0,0,0,1.88-.67,3,3,0,0,0,1.12-2.33V219.38A3,3,0,0,0,344.22,217Zm-43,84a9,9,0,0,1-9,9H189.65a9,9,0,0,1-9-9V218.94a9,9,0,0,1,9-9H292.27a9,9,0,0,1,9,9Zm38.08-4.87-30.88-6.78V230.36l30.88-7.2Z"/></g></svg>