<svg xmlns="http://www.w3.org/2000/svg" viewBox="0 0 520 520"><defs><style>.cls-1{fill:#d99443;}</style></defs><title>icons</title><g id="Layer_1" data-name="Layer 1"><path class="cls-1" d="M377.32,355.79H143.07a16,16,0,0,1-16-16v-160a16,16,0,0,1,16-16H377.32a16,16,0,0,1,16,16v160A16,16,0,0,1,377.32,355.79Zm-234.25-184a8,8,0,0,0-8,8v160a8,8,0,0,0,8,8H377.32a8,8,0,0,0,8-8v-160a8,8,0,0,0-8-8Z"/><path class="cls-1" d="M228.2,307.59a4,4,0,0,1-4-4V217a4,4,0,0,1,6-3.47l75,43.3a4,4,0,0,1,0,6.93l-75,43.3A4,4,0,0,1,228.2,307.59Zm4-83.67v72.74l63-36.37Z"/></g></svg>