<svg xmlns="http://www.w3.org/2000/svg" viewBox="0 0 1040 364"><defs><style>.cls-1{fill:#d99443;}</style></defs><title>icons</title><g id="Layer_1" data-name="Layer 1"><path class="cls-1" d="M150.75,200.63l.81-3.23h3.23l-1.29,19.52H93.18v-3.23c10.8,0,12.74-2.74,12.74-18.87V169c0-16.13-1.94-18.71-12.74-18.71v-3.23h56.45l1.29,19.36h-3.39l-.81-3.23c-1.77-7.42-3.87-10.32-18.54-10.32H117.37v24h1c16.13,0,17.42-1.94,17.42-12.74H139v31.45h-3.22c0-10.65-1.29-12.74-17.42-12.74h-1v9.35c0,16.13,1.94,18.71,12.74,18.71h1.94C146.72,211,148.82,208.21,150.75,200.63Z"/><path class="cls-1" d="M217.2,212.4c11.29,0,19.68-6.45,19.68-20.48V169c0-16.13-1.94-18.71-12.74-18.71v-3.23H257v3.23c-10.65,0-12.74,2.58-12.74,18.71v21.77c0,18.87-13.07,28.71-28.87,28.71s-28.71-9.84-28.71-28.71V169c0-16.13-1.93-18.71-12.74-18.71v-3.23h36.93v3.23c-10.64,0-12.74,2.58-12.74,18.71v22.9C198.17,206,205.91,212.4,217.2,212.4Z"/><path class="cls-1" d="M269.13,150.31v-3.23H289l42.9,51V169c0-16.13-1.93-18.71-12.74-18.71v-3.23h31.45v3.23c-10.8,0-12.74,2.58-12.74,18.71V219.5h-3.07l-46.93-56.29v31.61c0,16.13,1.94,18.87,12.74,18.87v3.23H269.13v-3.23c10.81,0,12.75-2.74,12.75-18.87V169C281.88,152.89,279.94,150.31,269.13,150.31Z"/><path class="cls-1" d="M366.55,216.92v-3.23c10.8,0,12.74-2.74,12.74-18.87V169c0-16.13-1.94-18.71-12.74-18.71v-3.23h36.93v3.23c-10.81,0-12.74,2.58-12.74,18.71v25.8c0,16.13,1.93,18.87,12.74,18.87v3.23Z"/><path class="cls-1" d="M480.73,216.92c-.65-2.91-1.77-6.78-2.9-7.91-4.84,6-13.55,10.65-21.29,10.65-20.16,0-36.45-16.94-36.45-37.74,0-20.48,16.29-37.58,36.45-37.58,7.74,0,16.45,4.52,21.29,10.65,1.13-1.29,2.25-5.33,2.9-7.91h3.06V175h-3.22c-3.07-15-11.61-24.51-24-24.51-18.07,0-23.39,17.9-23.39,31.45,0,13.71,5.32,31.45,23.39,31.45,12.42,0,21-9.52,24-24.52h3.22v28.07Z"/><path class="cls-1" d="M556.05,200.63l.8-3.23h3.23l-1.29,19.52H498.47v-3.23c10.81,0,12.74-2.74,12.74-18.87V169c0-16.13-1.93-18.71-12.74-18.71v-3.23h56.45l1.29,19.36h-3.39l-.8-3.23c-1.78-7.42-3.87-10.32-18.55-10.32H522.66v24h1c16.13,0,17.42-1.94,17.42-12.74h3.22v31.45h-3.22c0-10.65-1.29-12.74-17.42-12.74h-1v9.35c0,16.13,1.94,18.71,12.74,18.71h1.94C552,211,554.11,208.21,556.05,200.63Z"/><path class="cls-1" d="M656,213.69v3.23H619.1v-3.23c10.81,0,12.75-2.74,12.75-18.87V169c0-16.13-1.94-18.71-12.75-18.71v-3.23h33.39c16.61,0,25.8,8.55,25.8,20,0,11.13-9.19,19.84-25.8,19.84H643.3v7.9C643.3,211,645.23,213.69,656,213.69Zm-3.55-60.8H643.3V181h9.19c9,0,13.22-6.29,13.22-13.87C665.71,159.34,661.52,152.89,652.49,152.89Z"/><path class="cls-1" d="M709.74,201.27c-4,9.52-4,12.26,8.71,12.26v3.39H688v-3.39c9.84,0,11.29-1.94,16.61-14l23.71-55.16h2.26l23.71,55.16c5.32,12.09,7.25,14,15.8,14v3.39H733.94v-3.39c11.61,0,12.74-2.74,8.7-12.26l-3.22-7.42H713Zm16.45-38.06-10.64,24.68h21.29Z"/><path class="cls-1" d="M826.67,198.69c6.45,7.58,13.87,13.87,21.61,15v3.23H827.64l-21.94-30h-4.51v7.9c0,16.13,1.93,18.87,12.74,18.87v3.23H777v-3.23c10.8,0,12.74-2.74,12.74-18.87V169c0-16.13-1.94-18.71-12.74-18.71v-3.23h33.38c16.61,0,25.81,8.55,25.81,20,0,9.84-7.42,17.9-19.52,19.52Zm-16.29-45.8h-9.19V181h9.19c9,0,13.23-6.29,13.23-13.87C823.61,159.34,819.41,152.89,810.38,152.89Z"/><path class="cls-1" d="M885.53,186.6v8.22c0,16.13,1.94,18.87,12.75,18.87v3.23H861.34v-3.23c10.81,0,12.74-2.74,12.74-18.87V169c0-16.13-1.93-18.71-12.74-18.71v-3.23h36.94v3.23c-10.81,0-12.75,2.58-12.75,18.71v10.32l19.68-16.77c11.61-10,10.81-12.26,1.94-12.26v-3.23h30.32v3.23c-8.07,0-12.91,2.74-26.29,14.19l-13.87,11.94L923.6,199.5c13.22,11.61,17.58,14,23.22,14v3.39h-37.9v-3.39c8.87.16,10.48-2.74.32-12.26l-19.51-18.22Z"/></g></svg>